<svg xmlns="http://www.w3.org/2000/svg" viewBox="1027 597 27 26">
  <defs>
    <style>
      .cls-1 {
        fill: #2b81b7;
      }
    </style>
  </defs>
  <g id="シンボル_9_1" data-name="シンボル 9 – 1" transform="translate(864 -4)">
    <path id="パス_127" data-name="パス 127" class="cls-1" d="M.875,7h5.25A.867.867,0,0,0,7,6.125V.875A.867.867,0,0,0,6.125,0H.875A.867.867,0,0,0,0,.875v5.25A.867.867,0,0,0,.875,7ZM1.75,1.75h3.5v3.5H1.75Z" transform="translate(163 601)"/>
    <path id="パス_128" data-name="パス 128" class="cls-1" d="M30,.875v5.25A.867.867,0,0,0,30.875,7h15.75a.867.867,0,0,0,.875-.875V.875A.867.867,0,0,0,46.625,0H30.875A.867.867,0,0,0,30,.875Zm1.75.875h14v3.5h-14Z" transform="translate(142.5 601)"/>
    <path id="パス_129" data-name="パス 129" class="cls-1" d="M.875,37h5.25A.866.866,0,0,0,7,36.125v-5.25A.867.867,0,0,0,6.125,30H.875A.867.867,0,0,0,0,30.875v5.25A.866.866,0,0,0,.875,37Zm.875-5.25h3.5v3.5H1.75Z" transform="translate(163 580.5)"/>
    <path id="パス_130" data-name="パス 130" class="cls-1" d="M47.5,30.875A.867.867,0,0,0,46.625,30H30.875a.867.867,0,0,0-.875.875v5.25a.866.866,0,0,0,.875.875h15.75a.867.867,0,0,0,.875-.875ZM45.75,35.25h-14v-3.5h14Z" transform="translate(142.5 580.5)"/>
    <path id="パス_131" data-name="パス 131" class="cls-1" d="M.875,67h5.25A.867.867,0,0,0,7,66.125v-5.25A.866.866,0,0,0,6.125,60H.875A.866.866,0,0,0,0,60.875v5.25A.867.867,0,0,0,.875,67Zm.875-5.25h3.5v3.5H1.75Z" transform="translate(163 560)"/>
    <path id="パス_132" data-name="パス 132" class="cls-1" d="M46.625,60H30.875a.866.866,0,0,0-.875.875v5.25a.867.867,0,0,0,.875.875h15.75a.867.867,0,0,0,.875-.875v-5.25A.867.867,0,0,0,46.625,60Zm-.875,5.25h-14v-3.5h14Z" transform="translate(142.5 560)"/>
  </g>
</svg>
