<svg xmlns="http://www.w3.org/2000/svg" viewBox="1335.5 186 15 22.844">
  <defs>
    <style>
      .cls-1 {
        fill: #777779;
      }
    </style>
  </defs>
  <g id="シンボル_7_1" data-name="シンボル 7 – 1" transform="translate(1290 -14.5)">
    <path id="パス_109" data-name="パス 109" class="cls-1" d="M14.236,4.117A7.492,7.492,0,0,0,4.158.759,7.675,7.675,0,0,0,.821,10.9C2.628,14.47,6.544,22.188,6.544,22.188a1.1,1.1,0,0,0,1.969,0S13.17,13.048,14.236,10.9A7.526,7.526,0,0,0,14.236,4.117Zm-6.7,7.345a3.941,3.941,0,1,1,3.915-3.941A3.938,3.938,0,0,1,7.54,11.462Z" transform="translate(45.456 200.544)"/>
  </g>
</svg>
