<svg xmlns="http://www.w3.org/2000/svg" viewBox="1165 595 30 30">
  <defs>
    <style>
      .cls-1 {
        fill: #2b81b7;
      }
    </style>
  </defs>
  <g id="シンボル_10_1" data-name="シンボル 10 – 1" transform="translate(864 -4)">
    <path id="パス_126" data-name="パス 126" class="cls-1" d="M13.37,952.4a2.965,2.965,0,0,0-2.935,2.935v.587c-.1.033-.228.1-.326.13l-.391-.391a2.972,2.972,0,0,0-4.174,0l-2.315,2.315a2.932,2.932,0,0,0,0,4.141l.391.391c-.033.1-.1.228-.13.326H2.935A2.965,2.965,0,0,0,0,965.77v3.261a2.965,2.965,0,0,0,2.935,2.935h.587c.033.1.1.228.13.326l-.391.391a2.932,2.932,0,0,0,0,4.141l2.315,2.315a2.972,2.972,0,0,0,4.174,0l.391-.391c.1.033.228.1.326.13v.587A2.965,2.965,0,0,0,13.4,982.4h3.261a2.965,2.965,0,0,0,2.935-2.935v-.587c.1-.033.228-.1.326-.13l.391.391a2.972,2.972,0,0,0,4.174,0l2.315-2.315a2.932,2.932,0,0,0,0-4.141l-.391-.391c.033-.1.1-.228.13-.326h.522A2.965,2.965,0,0,0,30,969.03V965.77a2.965,2.965,0,0,0-2.935-2.935h-.587c-.033-.1-.1-.228-.13-.326l.391-.391a2.932,2.932,0,0,0,0-4.141l-2.315-2.315a2.972,2.972,0,0,0-4.174,0l-.391.391c-.1-.033-.228-.1-.326-.13v-.587A2.965,2.965,0,0,0,16.6,952.4Zm0,1.956H16.63a.961.961,0,0,1,.978.978v1.239a.939.939,0,0,0,.685.913,9.041,9.041,0,0,1,1.4.587.942.942,0,0,0,1.141-.2l.88-.88a.946.946,0,0,1,1.37,0l2.315,2.315a.984.984,0,0,1,0,1.4l-.88.88a1.046,1.046,0,0,0-.2,1.141,10.594,10.594,0,0,1,.587,1.4,1.012,1.012,0,0,0,.913.685h1.239a.961.961,0,0,1,.978.978v3.261a.961.961,0,0,1-.978.978H25.826a.95.95,0,0,0-.913.652,9.034,9.034,0,0,1-.587,1.4.942.942,0,0,0,.2,1.141l.88.881a.984.984,0,0,1,0,1.4l-2.315,2.315a.946.946,0,0,1-1.37,0l-.88-.88a1.046,1.046,0,0,0-1.141-.2,10.621,10.621,0,0,1-1.4.587,1.021,1.021,0,0,0-.685.946v1.239a.961.961,0,0,1-.978.978H13.37a.961.961,0,0,1-.978-.978v-1.239a.978.978,0,0,0-.685-.946,9.041,9.041,0,0,1-1.4-.587.942.942,0,0,0-1.141.2l-.88.88a.946.946,0,0,1-1.37,0L4.6,975.52a.984.984,0,0,1,0-1.4l.88-.881a1.045,1.045,0,0,0,.2-1.141,10.594,10.594,0,0,1-.587-1.4.981.981,0,0,0-.913-.652H2.935a.961.961,0,0,1-.978-.978V965.8a.961.961,0,0,1,.978-.978H4.174a.939.939,0,0,0,.913-.685,9.032,9.032,0,0,1,.587-1.4.942.942,0,0,0-.2-1.141l-.88-.88a.984.984,0,0,1,0-1.4L6.913,957a.946.946,0,0,1,1.37,0l.88.88a1.045,1.045,0,0,0,1.141.2,10.6,10.6,0,0,1,1.4-.587,1.013,1.013,0,0,0,.685-.913v-1.239A.942.942,0,0,1,13.37,954.357ZM15,959.9a7.5,7.5,0,1,0,7.5,7.5A7.5,7.5,0,0,0,15,959.9Zm0,1.956A5.543,5.543,0,1,1,9.457,967.4,5.539,5.539,0,0,1,15,961.857Z" transform="translate(301 -353.4)"/>
  </g>
</svg>
